# xmcd CD database file
#
# Track frame offsets:
#	150
#	15313
#	39857
#	60117
#	78232
#	109741
#	124270
#	148919
#	171883
#	189404
#
# Disc length: 2706 seconds
#
# Revision: 0
# Processed by: cddbd v1.5.1PL0 Copyright (c) Steve Scherf et al.
# Submitted via: cdripper 1.0.7
#
DISCID=750a900a
DTITLE=The Doug Peart Blues Machine - At Least I Had a Life
DYEAR=2003
DGENRE=Blues
TTITLE0=Too Long in the Tooth
TTITLE1=Ain't Enough Coming' In
TTITLE2=What Can I Say?
TTITLE3=Call it Stormy Monday
TTITLE4=Who's Zat
TTITLE5=Cadillac Baby
TTITLE6=Sink of Swim
TTITLE7=Blow Wind Blow
TTITLE8=Victim of Society
TTITLE9=Vehicle
EXTD=YEAR: 2003
EXTT0=
EXTT1=
EXTT2=
EXTT3=
EXTT4=
EXTT5=
EXTT6=
EXTT7=
EXTT8=
EXTT9=
PLAYORDER=
